<svg fill="#575859" xmlns="http://www.w3.org/2000/svg"  viewBox="0 0 50 50" width="50px" height="50px"><circle cx="25" cy="25" r="22" fill="none" stroke="#575859" stroke-miterlimit="10" stroke-width="2"/><path d="M38.283,12.915c-0.958-3.759-7.192-4.995-13.091-2.899c-3.511,1.247-7.312,3.205-10.044,5.761 c-3.249,3.039-3.767,5.684-3.554,6.79c0.753,3.9,6.097,6.449,8.294,8.341v0.011c-0.648,0.319-5.389,2.718-6.498,5.171 c-1.171,2.588,0.186,4.445,1.085,4.695c2.784,0.775,5.64-0.619,7.176-2.908c1.481-2.21,1.358-5.063,0.714-6.483 c0.888-0.234,1.923-0.339,3.239-0.186c3.713,0.434,4.441,2.752,4.302,3.722c-0.139,0.97-0.918,1.504-1.178,1.665 c-0.26,0.161-0.34,0.217-0.318,0.337c0.032,0.174,0.152,0.168,0.374,0.13c0.306-0.052,1.95-0.789,2.02-2.58 c0.09-2.274-2.09-4.817-5.948-4.751c-1.589,0.027-2.588,0.179-3.31,0.447c-0.053-0.061-0.108-0.121-0.164-0.181 c-2.385-2.545-6.795-4.345-6.608-7.766c0.068-1.244,0.5-4.519,8.473-8.492c6.531-3.254,11.76-2.359,12.663-0.374 c1.291,2.836-2.794,8.106-9.577,8.866c-2.584,0.29-3.945-0.712-4.283-1.085c-0.356-0.393-0.409-0.41-0.542-0.337 c-0.217,0.12-0.079,0.467,0,0.673c0.203,0.527,1.034,1.462,2.45,1.927c1.246,0.409,4.28,0.634,7.95-0.786 C36.016,21.033,39.225,16.611,38.283,12.915z M20.799,32.072c0.308,1.139,0.274,2.201-0.044,3.163 c-0.035,0.107-0.074,0.213-0.116,0.317c-0.042,0.104-0.088,0.207-0.137,0.309c-0.245,0.509-0.574,0.985-0.978,1.425 c-1.23,1.342-2.948,1.849-3.685,1.421c-0.796-0.461-0.397-2.353,1.029-3.86c1.534-1.622,3.741-2.664,3.741-2.664l-0.003-0.007 C20.669,32.143,20.734,32.108,20.799,32.072z"/></svg>